<svg width="24" height="24" viewBox="0 0 24 24" fill="none" xmlns="http://www.w3.org/2000/svg">
<mask id="mask0_250_350" style="mask-type:alpha" maskUnits="userSpaceOnUse" x="0" y="0" width="24" height="24">
<rect width="24" height="24" fill="#D9D9D9"/>
</mask>
<g mask="url(#mask0_250_350)">
<path fill-rule="evenodd" clip-rule="evenodd" d="M11.9437 8.02843L10.2467 6.33137C8.67656 4.76126 6.1309 4.76126 4.56078 6.33137C2.99067 7.90149 2.99067 10.4471 4.56079 12.0173L11.9437 19.4002L19.3267 12.0173C20.8968 10.4471 20.8968 7.90148 19.3267 6.33137C17.7566 4.76126 15.2109 4.76125 13.6408 6.33137L11.9437 8.02843ZM2.86373 13.7143C0.356359 11.2069 0.356357 7.14169 2.86373 4.63432C5.3711 2.12695 9.43635 2.12695 11.9437 4.63432C14.4511 2.12694 18.5164 2.12694 21.0237 4.63431C23.5311 7.14169 23.5311 11.2069 21.0237 13.7143L11.9437 22.7943L2.86373 13.7143Z" fill="black"/>
</g>
</svg>
