<svg width="24" height="24" viewBox="0 0 24 24" fill="none" xmlns="http://www.w3.org/2000/svg">
<path fill-rule="evenodd" clip-rule="evenodd" d="M21 4.6875C21 6.86212 19.2371 8.625 17.0625 8.625C16.0478 8.625 15.1227 8.24115 14.4245 7.61073L8.49689 11.5625C8.58049 11.8818 8.625 12.217 8.625 12.5625C8.625 12.908 8.58049 13.2432 8.49689 13.5625L13.8044 17.1008C14.5128 16.0592 15.7078 15.375 17.0625 15.375C19.2371 15.375 21 17.1379 21 19.3125C21 21.4871 19.2371 23.25 17.0625 23.25C14.9011 23.25 13.1465 21.5085 13.1252 19.3522L7.32547 15.4857C6.62732 16.1161 5.70224 16.5 4.6875 16.5C2.51288 16.5 0.75 14.7371 0.75 12.5625C0.75 10.3879 2.51288 8.625 4.6875 8.625C5.70224 8.625 6.62732 9.00885 7.32547 9.63927L13.2531 5.68751C13.1695 5.36818 13.125 5.03304 13.125 4.6875C13.125 2.51288 14.8879 0.75 17.0625 0.75C19.2371 0.75 21 2.51288 21 4.6875ZM17.0625 6.375C17.9945 6.375 18.75 5.61948 18.75 4.6875C18.75 3.75552 17.9945 3 17.0625 3C16.1305 3 15.375 3.75552 15.375 4.6875C15.375 5.61948 16.1305 6.375 17.0625 6.375ZM4.6875 14.25C5.61948 14.25 6.375 13.4945 6.375 12.5625C6.375 11.6305 5.61948 10.875 4.6875 10.875C3.75552 10.875 3 11.6305 3 12.5625C3 13.4945 3.75552 14.25 4.6875 14.25ZM18.75 19.3125C18.75 20.2445 17.9945 21 17.0625 21C16.1305 21 15.375 20.2445 15.375 19.3125C15.375 18.3805 16.1305 17.625 17.0625 17.625C17.9945 17.625 18.75 18.3805 18.75 19.3125Z" fill="#111111"/>
</svg>
