<svg width="24" height="25" viewBox="0 0 24 25" fill="none" xmlns="http://www.w3.org/2000/svg">
<mask id="mask0_24_6013" style="mask-type:alpha" maskUnits="userSpaceOnUse" x="0" y="0" width="24" height="25">
<rect y="0.5" width="24" height="24" fill="#D9D9D9"/>
</mask>
<g mask="url(#mask0_24_6013)">
<path d="M20.45 21.6635L17 18.2135V21.15H16V16.5H20.65V17.5H17.6885L21.1385 20.95L20.45 21.6635ZM12 21.5C10.755 21.5 9.585 21.2638 8.49 20.7915C7.395 20.3192 6.4425 19.6782 5.6325 18.8685C4.8225 18.0588 4.18125 17.1067 3.70875 16.012C3.23625 14.9175 3 13.7479 3 12.5033C3 11.2587 3.23617 10.0887 3.7085 8.993C4.18083 7.8975 4.82183 6.9445 5.6315 6.134C6.44117 5.3235 7.39333 4.68192 8.488 4.20925C9.5825 3.73642 10.7521 3.5 11.9967 3.5C13.2413 3.5 14.4113 3.73625 15.507 4.20875C16.6025 4.68125 17.5555 5.3225 18.366 6.1325C19.1765 6.9425 19.8181 7.895 20.2908 8.99C20.7636 10.085 21 11.255 21 12.5C21 12.7692 20.9882 13.0384 20.9645 13.3077C20.9407 13.5769 20.9051 13.8462 20.8577 14.1155H19.827C19.8847 13.8462 19.9279 13.5769 19.9568 13.3077C19.9856 13.0384 20 12.7692 20 12.5C20 12.1068 19.9727 11.7137 19.9182 11.3205C19.8637 10.9273 19.7756 10.5384 19.6538 10.1538H15.6193C15.6949 10.5384 15.7484 10.9273 15.7797 11.3205C15.8112 11.7137 15.827 12.1068 15.827 12.5C15.827 12.7692 15.8193 13.0384 15.8038 13.3077C15.7884 13.5769 15.7653 13.8462 15.7345 14.1155H14.7345C14.7653 13.8462 14.7884 13.5769 14.8038 13.3077C14.8193 13.0384 14.827 12.7692 14.827 12.5C14.827 12.1068 14.8112 11.7137 14.7797 11.3205C14.7484 10.9273 14.6949 10.5384 14.6193 10.1538H9.38075C9.30508 10.5384 9.25158 10.9278 9.22025 11.322C9.18875 11.7163 9.173 12.1106 9.173 12.5048C9.173 12.8991 9.18875 13.2917 9.22025 13.6827C9.25158 14.0737 9.30508 14.4616 9.38075 14.8463H13.3845V15.8463H9.61925C9.86225 16.7029 10.1763 17.5247 10.5613 18.3117C10.9461 19.0987 11.4257 19.8307 12 20.5077C12.2692 20.5077 12.5384 20.4933 12.8077 20.4645C13.0769 20.4357 13.3462 20.4046 13.6155 20.3713V21.3635C13.3462 21.3968 13.0769 21.4279 12.8077 21.4568C12.5384 21.4856 12.2692 21.5 12 21.5ZM4.34625 14.8463H8.38075C8.30508 14.4616 8.25158 14.0722 8.22025 13.678C8.18875 13.2837 8.173 12.8894 8.173 12.4952C8.173 12.1009 8.18875 11.7083 8.22025 11.3173C8.25158 10.9263 8.30508 10.5384 8.38075 10.1538H4.34625C4.22442 10.5384 4.13625 10.9278 4.08175 11.322C4.02725 11.7163 4 12.1106 4 12.5048C4 12.8991 4.02725 13.2917 4.08175 13.6827C4.13625 14.0737 4.22442 14.4616 4.34625 14.8463ZM4.75375 9.15375H8.57925C8.77392 8.31925 9.04458 7.51958 9.39125 6.75475C9.73808 5.99008 10.1833 5.27308 10.727 4.60375C9.4 4.80125 8.21283 5.3035 7.1655 6.1105C6.118 6.91767 5.31408 7.93208 4.75375 9.15375ZM10.727 20.3962C10.2218 19.7141 9.79267 18.9907 9.4395 18.226C9.08617 17.4612 8.8025 16.6679 8.5885 15.8463H4.75375C5.31408 17.0551 6.12117 18.0631 7.175 18.8702C8.22883 19.6772 9.41283 20.1859 10.727 20.3962ZM9.61925 9.15375H14.3807C14.1551 8.29608 13.8402 7.48083 13.436 6.708C13.0318 5.93517 12.5532 5.19658 12 4.49225C11.4385 5.16925 10.9578 5.901 10.5578 6.6875C10.1578 7.474 9.84492 8.29608 9.61925 9.15375ZM15.4115 9.15375H19.2463C18.6859 7.93208 17.882 6.9145 16.8345 6.101C15.7872 5.2875 14.6 4.78842 13.273 4.60375C13.7782 5.28592 14.1978 6.01258 14.5318 6.78375C14.8658 7.55492 15.159 8.34492 15.4115 9.15375Z" fill="white"/>
</g>
</svg>
